# xmcd
#
# Track frame offsets: 
#        150
#        16665
#        28714
#        43921
#        59389
#        71967
#        81336
#        96597
#        114391
#        129100
#        140481
#        152656
#
# Disc length: 2189 seconds
#
# Revision: 1
# Processed by: cddbd v1.5.2PL0 Copyright (c) Steve Scherf et al.
# Submitted via: ExactAudioCopy v0.99pb5
#
DISCID=a3088b0c
DTITLE=Duke Ellington - Ellington '66
DYEAR=1966
DGENRE=Big Band
TTITLE0=Red Roses For A Blue Lady
TTITLE1=Charade
TTITLE2=People
TTITLE3=All My Loving
TTITLE4=A Beautiful Friendship
TTITLE5=I Want To Hold Your Hand
TTITLE6=Days Of Wine And Roses
TTITLE7=I Can't Stop Loving You
TTITLE8=The Good Life
TTITLE9=Satin Doll
TTITLE10=Moon River
TTITLE11=Ellington '66
EXTD=YEAR: 1965
EXTT0=
EXTT1=
EXTT2=
EXTT3=
EXTT4=
EXTT5=
EXTT6=
EXTT7=
EXTT8=
EXTT9=
EXTT10=
EXTT11=
PLAYORDER=
